*
G04 Mass Parameters ***
*
G04 Image ***
*
%IND:\UTENTI\00.LAVORI IN CORSO\METALTRONICA\23-319-0 (FOTOCOPPIE LAME LATERALI)\23-319-0.SST*%
%ICAS*%
%MOIN*%
%IPPOS*%
%ASAXBY*%
G74*%FSLAN2X34Y34*%
*
G04 Aperture Definitions ***
*
%ADD10C,0.0866*%
%ADD11C,0.0394*%
%ADD12R,0.0315X0.0590*%
%ADD13R,0.0236X0.0590*%
%ADD14C,0.0551*%
%ADD15C,0.0276*%
%ADD16C,0.0150*%
%ADD17C,0.0080*%
%ADD18C,0.0276*%
%ADD19C,0.0060*%
%ADD20R,0.0380X0.0320*%
%ADD21R,0.0354X0.0709*%
%ADD22R,0.0570X0.0590*%
%ADD23R,0.0500X0.0270*%
%ADD24R,0.0500X0.0400*%
%ADD25C,0.0120*%
%ADD26C,0.0590*%
%ADD27C,0.0010*%
*
G04 Plot Data ***
*
G54D19*
G01X0037436Y-0006135D02*
X0037218D01*
X0037436Y-0005824D01*
Y-0005746D01*
X0037408Y-0005669D01*
X0037245D01*
X0037218Y-0005746D01*
X0036068Y-0003607D02*
X0036095Y-0003685D01*
X0036258D01*
X0036286Y-0003607D01*
Y-0003452D01*
X0036231Y-0003374D01*
X0036068D01*
Y-0003219D01*
X0036286D01*
X0036686Y-0005980D02*
X0036468D01*
X0036577Y-0005669D01*
X0036631D01*
Y-0006135D01*
X0036868Y-0003607D02*
X0036922Y-0003685D01*
X0037031D01*
X0037086Y-0003607D01*
Y-0003530D01*
X0036977Y-0003374D01*
X0037086Y-0003219D01*
X0036868D01*
X0040088Y-0004868D02*
X0039995D01*
X0040042D02*
Y-0004468D01*
X0039995Y-0004535D01*
X0039642Y-0004735D02*
Y-0004802D01*
X0039665Y-0004868D01*
X0039758D01*
X0039782Y-0004802D01*
Y-0004468D01*
X0039805D02*
X0039712D01*
X0037781Y-0003635D02*
X0037672D01*
X0037727D02*
Y-0003169D01*
X0037672Y-0003246D01*
X0036811Y-0004409D02*
X0036929D01*
X0036732D02*
Y-0004488D01*
X0036338D02*
X0036220D01*
X0036142D02*
X0036024D01*
X0035797Y-0004685D02*
Y-0004606D01*
X0037992Y-0004488D02*
X0038140D01*
Y-0004409D01*
Y-0004488D02*
Y-0004606D01*
X0037520Y-0004488D02*
X0037401D01*
X0037913Y-0004409D02*
Y-0004488D01*
X0037716D02*
X0037598D01*
X0037008Y-0004409D02*
X0037126D01*
Y-0004390D01*
X0037205D01*
Y-0004409D01*
X0037323D01*
Y-0004390D01*
X0037401D01*
Y-0004426D01*
Y-0004488D01*
Y-0004541D01*
Y-0004543D01*
X0037323D01*
Y-0004541D01*
Y-0004488D01*
X0037205D01*
Y-0004409D01*
X0036535Y-0004488D02*
Y-0004426D01*
Y-0004390D01*
X0036614D01*
Y-0004409D01*
Y-0004426D01*
Y-0004541D01*
Y-0004543D01*
X0036535D01*
Y-0004541D01*
Y-0004488D01*
X0036417D01*
Y-0004409D01*
X0036535D01*
X0036417Y-0004488D02*
Y-0004665D01*
X0036338D01*
Y-0004488D01*
Y-0004409D01*
X0036220D01*
Y-0004390D01*
X0036142D01*
Y-0004426D01*
Y-0004488D01*
Y-0004541D01*
Y-0004544D01*
Y-0004665D01*
X0036220D01*
Y-0004544D01*
Y-0004541D01*
Y-0004426D01*
Y-0004409D01*
X0038205Y-0004232D02*
X0038244D01*
X0039291D01*
Y-0005138D01*
X0037953Y-0005453D01*
X0035984D01*
X0034646Y-0005138D01*
Y-0004232D01*
X0035693D01*
X0035732D01*
Y-0004705D01*
X0038205D01*
Y-0004232D01*
X0038140D01*
Y-0004409D01*
X0037992D01*
Y-0004488D01*
Y-0004665D01*
X0037913D01*
Y-0004488D01*
X0037795D01*
X0035732Y-0004705D02*
X0035693Y-0004744D01*
X0038244D01*
Y-0004232D01*
X0035693Y-0004744D02*
Y-0004232D01*
X0036929Y-0004544D02*
X0037008D01*
Y-0004541D01*
Y-0004426D01*
Y-0004390D01*
X0036929D01*
Y-0004409D01*
Y-0004426D01*
Y-0004541D01*
Y-0004544D01*
Y-0004665D01*
X0037008D01*
Y-0004544D01*
Y-0004541D01*
X0037716Y-0004409D02*
Y-0004390D01*
X0037795D01*
Y-0004426D01*
Y-0004541D01*
Y-0004544D01*
Y-0004665D01*
X0037716D01*
Y-0004544D01*
Y-0004541D01*
Y-0004426D01*
Y-0004409D01*
X0037598D01*
Y-0004390D01*
X0037520D01*
Y-0004409D01*
X0037401D01*
X0036535Y-0004543D02*
Y-0004665D01*
X0036614D01*
Y-0004543D01*
X0037323D02*
Y-0004665D01*
X0037401D01*
Y-0004543D01*
X0035732Y-0004232D02*
X0035797D01*
X0038140D01*
X0037323Y-0004488D02*
Y-0004426D01*
Y-0004409D01*
X0038140Y-0004704D02*
Y-0004685D01*
X0038205D01*
X0035732D02*
X0035797D01*
Y-0004705D01*
Y-0004232D02*
Y-0004409D01*
X0035945D01*
Y-0004488D01*
X0035797D01*
Y-0004606D01*
X0035732D01*
X0038140Y-0004685D02*
Y-0004606D01*
X0038205D01*
X0038268Y-0004232D02*
Y-0004055D01*
Y-0004035D01*
X0038425D01*
Y-0004055D01*
Y-0004232D01*
X0036220Y-0004540D02*
X0036142D01*
Y-0004544D01*
X0036220D01*
Y-0004232D02*
Y-0004212D01*
Y-0004055D01*
Y-0004035D01*
X0036142D01*
Y-0004055D01*
Y-0004212D01*
Y-0004232D01*
X0038244Y-0004744D02*
X0038205Y-0004705D01*
X0035669Y-0004232D02*
Y-0004055D01*
Y-0004035D01*
X0035512D01*
Y-0004055D01*
Y-0004232D01*
X0037008D02*
Y-0004212D01*
Y-0004055D01*
Y-0004035D01*
X0036929D01*
Y-0004055D01*
Y-0004212D01*
Y-0004232D01*
X0037716Y-0004544D02*
X0037795D01*
Y-0004232D02*
Y-0004212D01*
Y-0004055D01*
Y-0004035D01*
X0037716D01*
Y-0004055D01*
Y-0004212D01*
Y-0004232D01*
X0037520Y-0004409D02*
Y-0004488D01*
Y-0004665D01*
X0037598D01*
Y-0004488D01*
Y-0004409D01*
X0035797D02*
Y-0004488D01*
X0035945D02*
Y-0004665D01*
X0036024D01*
Y-0004488D01*
Y-0004409D01*
X0036142D01*
X0036024D02*
Y-0004390D01*
X0035945D01*
Y-0004409D01*
X0036417D02*
Y-0004390D01*
X0036338D01*
Y-0004409D01*
X0036929Y-0004488D02*
X0036811D01*
Y-0004665D01*
X0036732D01*
Y-0004488D01*
X0036614D01*
X0036811D02*
Y-0004409D01*
Y-0004390D01*
X0036732D01*
Y-0004409D01*
X0036614D01*
X0037205Y-0004488D02*
Y-0004665D01*
X0037126D01*
Y-0004488D01*
X0037008D01*
X0037992Y-0004409D02*
Y-0004390D01*
X0037913D01*
Y-0004409D01*
X0037795D01*
X0037126D02*
Y-0004488D01*
G54D27*
G01X-0000901Y-0002307D02*
Y-0002406D01*
Y-0002356D02*
X-0001198D01*
X-0001148Y-0002406D01*
X-0000950Y-0002698D02*
X-0000901Y-0002648D01*
Y-0002549D01*
X-0000950Y-0002500D01*
X-0001000D01*
X-0001099Y-0002599D01*
X-0001198Y-0002500D01*
Y-0002698D01*
X0000000Y0000306D02*
Y0000052D01*
X-0000254Y0000179D01*
Y0000242D01*
X0000127D01*
Y0000000D02*
Y-0000254D01*
X-0000127Y0000000D01*
X-0000191D01*
X-0000254Y-0000032D01*
Y-0000223D01*
X-0000191Y-0000254D01*
M02*
