*
G04 Mass Parameters ***
*
G04 Image ***
*
%IND:\UTENTI\00.CAD\00.PROGETTI\METALTRONICA\23-319-0 (FOTOCOPPIE LAME LATERALI)\23-319-0.SPB*%
%ICAS*%
%MOIN*%
%IPPOS*%
%ASAXBY*%
G74*%FSLAN2X34Y34*%
*
G04 Aperture Definitions ***
*
%ADD10C,0.0866*%
%ADD11C,0.0394*%
%ADD12R,0.0315X0.0590*%
%ADD13R,0.0236X0.0590*%
%ADD14C,0.0551*%
%ADD15C,0.0276*%
%ADD16C,0.0150*%
%ADD17C,0.0276*%
%ADD18C,0.0080*%
%ADD19C,0.0060*%
%ADD20R,0.0380X0.0320*%
%ADD21R,0.0354X0.0709*%
%ADD22R,0.0570X0.0590*%
%ADD23R,0.0500X0.0270*%
%ADD24R,0.0500X0.0400*%
%ADD25C,0.0120*%
%ADD26C,0.0590*%
*
G04 Plot Data ***
*
G54D20*
X0005500Y0000720D03*
Y0001280D03*
X0036250Y-0002530D03*
Y-0001970D03*
X0005500Y0001970D03*
Y0002530D03*
X0000750D03*
Y0001970D03*
X0000000D03*
Y0002530D03*
X0038500Y-0002530D03*
Y-0001970D03*
X0037750D03*
Y-0002530D03*
X0008950Y0001720D03*
Y0002280D03*
X0001500Y0001970D03*
Y0002530D03*
X0006250Y0001470D03*
Y0002030D03*
X0037000Y-0002530D03*
Y-0001970D03*
X0035500D03*
Y-0002530D03*
X0033000D03*
Y-0001970D03*
G54D21*
X0003209Y0001201D03*
Y-0001201D03*
X0002224D03*
Y0001201D03*
X0032224Y-0001201D03*
Y0001201D03*
X0033209D03*
Y-0001201D03*
G54D22*
X0037500Y0000255D03*
Y0001245D03*
X0038500D03*
Y0000255D03*
G54D23*
X0003750Y0001850D03*
Y0002230D03*
Y0002600D03*
X0004770D03*
Y0001850D03*
X0034750Y-0002000D03*
Y-0002380D03*
Y-0002750D03*
X0033730D03*
Y-0002000D03*
G54D24*
X0007050Y0002000D03*
X0007950Y0002400D03*
Y0001600D03*
M02*
