*
G04 Mass Parameters ***
*
G04 Image ***
*
%IND:\UTENTI\00.LAVORI IN CORSO\METALTRONICA\23-319-0 (FOTOCOPPIE LAME LATERALI)\23-319-0.DRD*%
%ICAS*%
%MOIN*%
%IPPOS*%
%ASAXBY*%
G74*%FSLAN2X34Y34*%
*
G04 Aperture Definitions ***
*
%ADD10C,0.0866*%
%ADD11C,0.0394*%
%ADD12R,0.0315X0.0590*%
%ADD13R,0.0236X0.0590*%
%ADD14C,0.0551*%
%ADD15C,0.0276*%
%ADD16C,0.0150*%
%ADD17C,0.0080*%
%ADD18C,0.0276*%
%ADD19C,0.0060*%
%ADD20R,0.0380X0.0320*%
%ADD21R,0.0354X0.0709*%
%ADD22R,0.0570X0.0590*%
%ADD23R,0.0500X0.0270*%
%ADD24R,0.0500X0.0400*%
%ADD25C,0.0120*%
%ADD26C,0.0590*%
%ADD27C,0.0010*%
%ADD28C,0.0100*%
*
G04 Plot Data ***
*
G54D28*
G01X0023058Y-0019433D02*
X0022392D01*
X0023058Y-0018767D01*
Y-0018600D01*
X0022975Y-0018433D01*
X0022475D01*
X0022392Y-0018600D01*
X0022108Y-0019433D02*
X0021775D01*
X0021942D02*
Y-0018433D01*
X0021775Y-0018600D01*
X0010662Y-0019433D02*
X0010079D01*
Y-0018433D01*
X0009796Y-0019100D02*
X0009129D01*
X0009796Y-0019433D02*
Y-0018933D01*
X0009546Y-0018433D01*
X0009379D01*
X0009129Y-0018933D01*
Y-0019433D01*
X0008512D02*
Y-0018433D01*
X0008846D02*
X0008179D01*
X0007312Y-0019433D02*
X0007229Y-0019267D01*
Y-0018600D01*
X0007312Y-0018433D01*
X0007812D01*
X0007896Y-0018600D01*
Y-0019267D01*
X0007812Y-0019433D01*
X0007312D01*
X0006612D02*
Y-0018433D01*
X0006946D02*
X0006279D01*
X0030914Y-0017572D02*
Y-0016906D01*
X0030858Y-0017572D02*
X0031191D01*
X0031303Y-0017350D01*
Y-0017128D01*
X0031191Y-0016906D01*
X0030858D01*
X0030491Y-0017239D02*
X0030158D01*
X0030603Y-0017572D02*
X0030158D01*
Y-0016906D01*
X0030603D01*
X0029680Y-0017572D02*
Y-0016906D01*
X0029903D02*
X0029458D01*
X0029203Y-0017350D02*
X0028758D01*
X0029203Y-0017572D02*
Y-0017239D01*
X0029036Y-0016906D01*
X0028925D01*
X0028758Y-0017239D01*
Y-0017572D01*
X0028503D02*
X0028114D01*
Y-0016906D01*
X0027414Y-0017239D02*
X0027747D01*
X0027858Y-0017128D01*
Y-0017017D01*
X0027747Y-0016906D01*
X0027414D01*
Y-0017572D01*
X0027158Y-0017239D02*
X0026714D01*
X0026458Y-0016906D02*
Y-0017572D01*
X0026347Y-0017461D01*
X0026125Y-0017017D01*
X0026014Y-0016906D01*
Y-0017572D01*
X0025369D02*
X0025314Y-0017461D01*
Y-0017017D01*
X0025369Y-0016906D01*
X0025703D01*
X0025758Y-0017017D01*
Y-0017461D01*
X0025703Y-0017572D01*
X0025369D01*
X0025058Y-0016906D02*
Y-0017572D01*
X0024947Y-0017461D01*
X0024725Y-0017017D01*
X0024614Y-0016906D01*
Y-0017572D01*
X0023058Y-0017350D02*
X0022614D01*
X0022836Y-0016906D01*
X0022947D01*
Y-0017572D01*
X0009219D02*
Y-0017239D01*
X0009442Y-0017572D02*
Y-0017239D01*
X0009386Y-0017128D01*
X0009275D01*
X0009219Y-0017239D01*
X0009164Y-0017128D01*
X0009053D01*
X0008997Y-0017239D01*
Y-0017572D01*
X0008519D02*
Y-0017239D01*
X0008742Y-0017572D02*
Y-0017239D01*
X0008686Y-0017128D01*
X0008575D01*
X0008519Y-0017239D01*
X0008464Y-0017128D01*
X0008353D01*
X0008297Y-0017239D01*
Y-0017572D01*
X0006814D02*
X0006703Y-0017461D01*
X0006647Y-0017350D01*
Y-0017128D01*
X0006703Y-0017017D01*
X0006814Y-0016906D01*
X0006925D01*
X0007036Y-0017017D01*
X0007092Y-0017128D01*
Y-0017350D01*
X0007036Y-0017461D01*
X0006925Y-0017572D01*
X0006814D01*
X0006114D02*
X0006003Y-0017461D01*
X0005947Y-0017350D01*
Y-0017128D01*
X0006003Y-0017017D01*
X0006114Y-0016906D01*
X0006225D01*
X0006336Y-0017017D01*
X0006392Y-0017128D01*
Y-0017350D01*
X0006336Y-0017461D01*
X0006225Y-0017572D01*
X0006114D01*
X0005692D02*
X0005247D01*
X0005692Y-0017128D01*
Y-0017017D01*
X0005636Y-0016906D01*
X0005303D01*
X0005247Y-0017017D01*
X0004881Y-0017572D02*
X0004992D01*
Y-0017461D01*
X0004881D01*
Y-0017572D01*
X0004514D02*
X0004069D01*
X0004514Y-0017128D01*
Y-0017017D01*
X0004458Y-0016906D01*
X0004125D01*
X0004069Y-0017017D01*
X0030914Y-0016072D02*
Y-0015406D01*
X0030858Y-0016072D02*
X0031191D01*
X0031303Y-0015850D01*
Y-0015628D01*
X0031191Y-0015406D01*
X0030858D01*
X0030491Y-0015739D02*
X0030158D01*
X0030603Y-0016072D02*
X0030158D01*
Y-0015406D01*
X0030603D01*
X0029680Y-0016072D02*
Y-0015406D01*
X0029903D02*
X0029458D01*
X0029203Y-0015850D02*
X0028758D01*
X0029203Y-0016072D02*
Y-0015739D01*
X0029036Y-0015406D01*
X0028925D01*
X0028758Y-0015739D01*
Y-0016072D01*
X0028503D02*
X0028114D01*
Y-0015406D01*
X0027414Y-0015739D02*
X0027747D01*
X0027858Y-0015628D01*
Y-0015517D01*
X0027747Y-0015406D01*
X0027414D01*
Y-0016072D01*
X0027158Y-0015739D02*
X0026714D01*
X0026458Y-0015406D02*
Y-0016072D01*
X0026347Y-0015961D01*
X0026125Y-0015517D01*
X0026014Y-0015406D01*
Y-0016072D01*
X0025369D02*
X0025314Y-0015961D01*
Y-0015517D01*
X0025369Y-0015406D01*
X0025703D01*
X0025758Y-0015517D01*
Y-0015961D01*
X0025703Y-0016072D01*
X0025369D01*
X0025058Y-0015406D02*
Y-0016072D01*
X0024947Y-0015961D01*
X0024725Y-0015517D01*
X0024614Y-0015406D01*
Y-0016072D01*
X0023058D02*
X0022614D01*
X0023058Y-0015628D01*
Y-0015517D01*
X0023003Y-0015406D01*
X0022669D01*
X0022614Y-0015517D01*
X0009219Y-0016072D02*
Y-0015739D01*
X0009442Y-0016072D02*
Y-0015739D01*
X0009386Y-0015628D01*
X0009275D01*
X0009219Y-0015739D01*
X0009164Y-0015628D01*
X0009053D01*
X0008997Y-0015739D01*
Y-0016072D01*
X0008519D02*
Y-0015739D01*
X0008742Y-0016072D02*
Y-0015739D01*
X0008686Y-0015628D01*
X0008575D01*
X0008519Y-0015739D01*
X0008464Y-0015628D01*
X0008353D01*
X0008297Y-0015739D01*
Y-0016072D01*
X0006814D02*
X0006703Y-0015961D01*
X0006647Y-0015850D01*
Y-0015628D01*
X0006703Y-0015517D01*
X0006814Y-0015406D01*
X0006925D01*
X0007036Y-0015517D01*
X0007092Y-0015628D01*
Y-0015850D01*
X0007036Y-0015961D01*
X0006925Y-0016072D01*
X0006814D01*
X0006114D02*
X0006003Y-0015961D01*
X0005947Y-0015850D01*
Y-0015628D01*
X0006003Y-0015517D01*
X0006114Y-0015406D01*
X0006225D01*
X0006336Y-0015517D01*
X0006392Y-0015628D01*
Y-0015850D01*
X0006336Y-0015961D01*
X0006225Y-0016072D01*
X0006114D01*
X0005692Y-0015850D02*
X0005247D01*
X0005469Y-0015406D01*
X0005580D01*
Y-0016072D01*
X0004881D02*
X0004992D01*
Y-0015961D01*
X0004881D01*
Y-0016072D01*
X0004514D02*
X0004292D01*
X0004403D02*
Y-0015406D01*
X0004292Y-0015517D01*
X0030914Y-0014572D02*
Y-0013906D01*
X0030858Y-0014572D02*
X0031191D01*
X0031303Y-0014350D01*
Y-0014128D01*
X0031191Y-0013906D01*
X0030858D01*
X0030491Y-0014239D02*
X0030158D01*
X0030603Y-0014572D02*
X0030158D01*
Y-0013906D01*
X0030603D01*
X0029680Y-0014572D02*
Y-0013906D01*
X0029903D02*
X0029458D01*
X0029203Y-0014350D02*
X0028758D01*
X0029203Y-0014572D02*
Y-0014239D01*
X0029036Y-0013906D01*
X0028925D01*
X0028758Y-0014239D01*
Y-0014572D01*
X0028503D02*
X0028114D01*
Y-0013906D01*
X0027414Y-0014239D02*
X0027747D01*
X0027858Y-0014128D01*
Y-0014017D01*
X0027747Y-0013906D01*
X0027414D01*
Y-0014572D01*
X0027158Y-0014239D02*
X0026714D01*
X0026458Y-0013906D02*
Y-0014572D01*
X0026347Y-0014461D01*
X0026125Y-0014017D01*
X0026014Y-0013906D01*
Y-0014572D01*
X0025369D02*
X0025314Y-0014461D01*
Y-0014017D01*
X0025369Y-0013906D01*
X0025703D01*
X0025758Y-0014017D01*
Y-0014461D01*
X0025703Y-0014572D01*
X0025369D01*
X0025058Y-0013906D02*
Y-0014572D01*
X0024947Y-0014461D01*
X0024725Y-0014017D01*
X0024614Y-0013906D01*
Y-0014572D01*
X0023058D02*
X0022614D01*
X0023058Y-0014128D01*
Y-0014017D01*
X0023003Y-0013906D01*
X0022669D01*
X0022614Y-0014017D01*
X0009219Y-0014572D02*
Y-0014239D01*
X0009442Y-0014572D02*
Y-0014239D01*
X0009386Y-0014128D01*
X0009275D01*
X0009219Y-0014239D01*
X0009164Y-0014128D01*
X0009053D01*
X0008997Y-0014239D01*
Y-0014572D01*
X0008519D02*
Y-0014239D01*
X0008742Y-0014572D02*
Y-0014239D01*
X0008686Y-0014128D01*
X0008575D01*
X0008519Y-0014239D01*
X0008464Y-0014128D01*
X0008353D01*
X0008297Y-0014239D01*
Y-0014572D01*
X0006814D02*
X0006703Y-0014461D01*
X0006647Y-0014350D01*
Y-0014128D01*
X0006703Y-0014017D01*
X0006814Y-0013906D01*
X0006925D01*
X0007036Y-0014017D01*
X0007092Y-0014128D01*
Y-0014350D01*
X0007036Y-0014461D01*
X0006925Y-0014572D01*
X0006814D01*
X0006114D02*
X0006003Y-0014461D01*
X0005947Y-0014350D01*
Y-0014128D01*
X0006003Y-0014017D01*
X0006114Y-0013906D01*
X0006225D01*
X0006336Y-0014017D01*
X0006392Y-0014128D01*
Y-0014350D01*
X0006336Y-0014461D01*
X0006225Y-0014572D01*
X0006114D01*
X0005414D02*
X0005303Y-0014461D01*
X0005247Y-0014350D01*
Y-0014128D01*
X0005303Y-0014017D01*
X0005414Y-0013906D01*
X0005525D01*
X0005636Y-0014017D01*
X0005692Y-0014128D01*
Y-0014350D01*
X0005636Y-0014461D01*
X0005525Y-0014572D01*
X0005414D01*
X0004881D02*
X0004992D01*
Y-0014461D01*
X0004881D01*
Y-0014572D01*
X0004514D02*
X0004292D01*
X0004403D02*
Y-0013906D01*
X0004292Y-0014017D01*
X0023058Y-0012850D02*
X0022614D01*
X0022836Y-0012406D01*
X0022947D01*
Y-0013072D01*
X0009219D02*
Y-0012739D01*
X0009442Y-0013072D02*
Y-0012739D01*
X0009386Y-0012628D01*
X0009275D01*
X0009219Y-0012739D01*
X0009164Y-0012628D01*
X0009053D01*
X0008997Y-0012739D01*
Y-0013072D01*
X0008519D02*
Y-0012739D01*
X0008742Y-0013072D02*
Y-0012739D01*
X0008686Y-0012628D01*
X0008575D01*
X0008519Y-0012739D01*
X0008464Y-0012628D01*
X0008353D01*
X0008297Y-0012739D01*
Y-0013072D01*
X0006814D02*
X0006703Y-0012961D01*
X0006647Y-0012850D01*
Y-0012628D01*
X0006703Y-0012517D01*
X0006814Y-0012406D01*
X0006925D01*
X0007036Y-0012517D01*
X0007092Y-0012628D01*
Y-0012850D01*
X0007036Y-0012961D01*
X0006925Y-0013072D01*
X0006814D01*
X0006114D02*
X0006003Y-0012961D01*
X0005947Y-0012850D01*
Y-0012628D01*
X0006003Y-0012517D01*
X0006114Y-0012406D01*
X0006225D01*
X0006336Y-0012517D01*
X0006392Y-0012628D01*
Y-0012850D01*
X0006336Y-0012961D01*
X0006225Y-0013072D01*
X0006114D01*
X0005692D02*
X0005247D01*
X0005692Y-0012628D01*
Y-0012517D01*
X0005636Y-0012406D01*
X0005303D01*
X0005247Y-0012517D01*
X0004881Y-0013072D02*
X0004992D01*
Y-0012961D01*
X0004881D01*
Y-0013072D01*
X0004236D02*
X0004125Y-0012961D01*
X0004069Y-0012850D01*
Y-0012628D01*
X0004125Y-0012517D01*
X0004236Y-0012406D01*
X0004347D01*
X0004458Y-0012517D01*
X0004514Y-0012628D01*
Y-0012850D01*
X0004458Y-0012961D01*
X0004347Y-0013072D01*
X0004236D01*
X0031462Y-0010933D02*
X0030962D01*
X0031629Y-0011433D02*
X0030962D01*
Y-0010433D01*
X0031629D01*
X0030346Y-0011433D02*
Y-0010433D01*
X0030679D02*
X0030012D01*
X0029146Y-0011433D02*
X0029062Y-0011267D01*
Y-0010600D01*
X0029146Y-0010433D01*
X0029646D01*
X0029729Y-0010600D01*
Y-0011267D01*
X0029646Y-0011433D01*
X0029146D01*
X0028779Y-0010433D02*
Y-0011433D01*
X0028612Y-0011267D01*
X0028279Y-0010600D01*
X0028112Y-0010433D01*
Y-0011433D01*
X0022275D02*
Y-0010933D01*
X0022608Y-0010433D02*
X0022358Y-0010933D01*
X0022192D01*
X0021942Y-0010433D01*
X0021325Y-0011433D02*
Y-0010433D01*
X0021658D02*
X0020992D01*
X0020375Y-0011100D02*
X0020708Y-0011433D01*
X0020042Y-0011267D02*
X0020125Y-0011433D01*
X0020458D01*
X0020542Y-0011267D01*
X0020708Y-0011100D01*
Y-0010600D01*
X0020625Y-0010433D01*
X0020125D01*
X0020042Y-0010600D01*
Y-0011267D01*
X0015758Y-0011433D02*
X0015175D01*
Y-0010433D01*
X0014308Y-0011433D02*
X0014225Y-0011267D01*
Y-0010600D01*
X0014308Y-0010433D01*
X0014808D01*
X0014892Y-0010600D01*
Y-0011267D01*
X0014808Y-0011433D01*
X0014308D01*
X0013608D02*
Y-0010433D01*
X0013942D02*
X0013275D01*
X0007937Y-0011433D02*
Y-0010433D01*
X0007771Y-0010600D01*
X0007604Y-0010933D01*
X0007437Y-0010600D01*
X0007271Y-0010433D01*
Y-0011433D01*
X0006987Y-0011100D02*
X0006321D01*
X0006987Y-0011433D02*
Y-0010933D01*
X0006737Y-0010433D01*
X0006571D01*
X0006321Y-0010933D01*
Y-0011433D01*
X0006037D02*
X0005704D01*
X0005871D02*
Y-0010433D01*
X0006037D02*
X0005704D01*
X0004671Y-0011433D02*
Y-0010433D01*
X0004587Y-0011433D02*
X0005087D01*
X0005254Y-0011100D01*
Y-0010767D01*
X0005087Y-0010433D01*
X0004587D01*
X0001500Y-0011433D02*
Y-0010433D01*
X0001333Y-0010600D01*
X0001167Y-0010933D01*
X0001000Y-0010600D01*
X0000833Y-0010433D01*
Y-0011433D01*
X0000217D02*
Y-0010933D01*
X0000550Y-0010433D02*
X0000300Y-0010933D01*
X0000133D01*
X-0000117Y-0010433D01*
X-0000400Y-0010600D02*
X-0000483Y-0010433D01*
X-0000983D01*
X-0001067Y-0010600D01*
Y-0010767D01*
X-0000983Y-0010933D01*
X-0000483D01*
X-0000400Y-0011100D01*
Y-0011267D01*
X-0000483Y-0011433D01*
X-0000983D01*
X-0001067Y-0011267D01*
X0021787Y-0009433D02*
Y-0008433D01*
X0022121D02*
X0021454D01*
X0020921Y-0008933D02*
X0021171Y-0009433D01*
X0020504Y-0008933D02*
X0021004D01*
X0021171Y-0008767D01*
Y-0008600D01*
X0021004Y-0008433D01*
X0020504D01*
Y-0009433D01*
X0020221Y-0009100D02*
X0019554D01*
X0020221Y-0009433D02*
Y-0008933D01*
X0019971Y-0008433D01*
X0019804D01*
X0019554Y-0008933D01*
Y-0009433D01*
X0019271Y-0008933D02*
X0018604D01*
X0019271Y-0009433D02*
Y-0008433D01*
X0018604Y-0009433D02*
Y-0008433D01*
X0018321Y-0009267D02*
X0018237Y-0009433D01*
X0017737D01*
X0017654Y-0009267D01*
Y-0008600D01*
X0017737Y-0008433D01*
X0018237D01*
X0018321Y-0008600D01*
X0016046Y-0009433D02*
X0015462D01*
Y-0008433D01*
X0015179Y-0009433D02*
X0014596D01*
Y-0008433D01*
X0014312Y-0009433D02*
X0013979D01*
X0014146D02*
Y-0008433D01*
X0014312D02*
X0013979D01*
X0013279Y-0008933D02*
X0013529Y-0009433D01*
X0012862Y-0008933D02*
X0013362D01*
X0013529Y-0008767D01*
Y-0008600D01*
X0013362Y-0008433D01*
X0012862D01*
Y-0009433D01*
X0011996D02*
Y-0008433D01*
X0011912Y-0009433D02*
X0012412D01*
X0012579Y-0009100D01*
Y-0008767D01*
X0012412Y-0008433D01*
X0011912D01*
X0009267Y-0004542D02*
Y-0004042D01*
X0009183Y-0004125D01*
X0009100Y-0004292D01*
X0009017Y-0004125D01*
X0008933Y-0004042D01*
Y-0004542D01*
X0008692D02*
Y-0004042D01*
X0008608Y-0004125D01*
X0008525Y-0004292D01*
X0008442Y-0004125D01*
X0008358Y-0004042D01*
Y-0004542D01*
X0008117D02*
X0007950D01*
X0008033D02*
Y-0004042D01*
X0007950Y-0004125D01*
X0006100Y-0004375D02*
X0005767D01*
X0005933Y-0004042D01*
X0006017D01*
Y-0004542D01*
X0005400Y-0004292D02*
X0005525Y-0004542D01*
X0005192Y-0004292D02*
X0005442D01*
X0005525Y-0004208D01*
Y-0004125D01*
X0005442Y-0004042D01*
X0005192D01*
Y-0004542D01*
X0004867Y-0004292D02*
X0004617D01*
Y-0004542D02*
Y-0004042D01*
X0004950D01*
X0002767Y-0004292D02*
X0002517D01*
X0002850Y-0004542D02*
X0002517D01*
Y-0004042D01*
X0002850D01*
X0002150Y-0004292D02*
X0002275Y-0004542D01*
X0001942Y-0004292D02*
X0002192D01*
X0002275Y-0004208D01*
Y-0004125D01*
X0002192Y-0004042D01*
X0001942D01*
Y-0004542D01*
X0001408D02*
X0001367Y-0004458D01*
Y-0004125D01*
X0001408Y-0004042D01*
X0001658D01*
X0001700Y-0004125D01*
Y-0004458D01*
X0001658Y-0004542D01*
X0001408D01*
X0001125Y-0004125D02*
X0001083Y-0004042D01*
X0000833D01*
X0000792Y-0004125D01*
Y-0004208D01*
X0000833Y-0004292D01*
X0001083D01*
X0001125Y-0004375D01*
Y-0004458D01*
X0001083Y-0004542D01*
X0000833D01*
X0000792Y-0004458D01*
X0000550Y-0004125D02*
X0000508Y-0004042D01*
X0000258D01*
X0000217Y-0004125D01*
Y-0004208D01*
X0000258Y-0004292D01*
X0000508D01*
X0000550Y-0004375D01*
Y-0004458D01*
X0000508Y-0004542D01*
X0000258D01*
X0000217Y-0004458D01*
X-0000108Y-0004292D02*
X-0000358D01*
X-0000025Y-0004542D02*
X-0000358D01*
Y-0004042D01*
X-0000025D01*
X-0000933Y-0004292D02*
X-0000683D01*
X-0000600Y-0004208D01*
Y-0004125D01*
X-0000683Y-0004042D01*
X-0000933D01*
Y-0004542D01*
X-0001175Y-0004125D02*
X-0001217Y-0004042D01*
X-0001467D01*
X-0001508Y-0004125D01*
Y-0004208D01*
X-0001467Y-0004292D01*
X-0001217D01*
X-0001175Y-0004375D01*
Y-0004458D01*
X-0001217Y-0004542D01*
X-0001467D01*
X-0001508Y-0004458D01*
X0036600Y-0003900D02*
X0036350Y-0004150D01*
X0036850D02*
X0036600Y-0003900D01*
Y-0004400D02*
X0036850Y-0004150D01*
X0036350D02*
X0036600Y-0004400D01*
X0038000Y-0004450D02*
X0037750Y-0004700D01*
X0038250D02*
X0038000Y-0004450D01*
Y-0004950D02*
X0038250Y-0004700D01*
X0037750D02*
X0038000Y-0004950D01*
X0036000Y-0005000D02*
X0035750Y-0005250D01*
X0036250D02*
X0036000Y-0005000D01*
Y-0005500D02*
X0036250Y-0005250D01*
X0035750D02*
X0036000Y-0005500D01*
X0037350Y-0004250D02*
X0037100Y-0004500D01*
X0037600D02*
X0037350Y-0004250D01*
Y-0004750D02*
X0037600Y-0004500D01*
X0037100D02*
X0037350Y-0004750D01*
X-0000075Y-0017100D02*
Y-0017600D01*
X0000425Y-0017100D02*
X-0000075D01*
X0000425Y-0017600D02*
Y-0017100D01*
X-0000075Y-0017600D02*
X0000425D01*
Y-0017100D02*
X-0000075Y-0017600D01*
X0000425D02*
X-0000075Y-0017100D01*
X0000425Y-0015850D02*
X-0000075D01*
X0000175Y-0015600D02*
Y-0016100D01*
X0000425Y-0014100D02*
X-0000075Y-0014600D01*
X0000425D02*
X-0000075Y-0014100D01*
X0000175Y-0012600D02*
X-0000075Y-0012850D01*
X0000425D02*
X0000175Y-0012600D01*
Y-0013100D02*
X0000425Y-0012850D01*
X-0000075D02*
X0000175Y-0013100D01*
X0035650Y-0020150D02*
X-0001700D01*
X0035600Y-0020100D02*
X-0001650D01*
X0035600Y-0018100D02*
X-0001650D01*
X0035600Y-0016600D02*
X-0001650D01*
X0035600Y-0015100D02*
X-0001650D01*
X0035600Y-0013600D02*
X-0001650D01*
X0035600Y-0012100D02*
X-0001650D01*
X0035600Y-0012050D02*
X-0001650D01*
X0035600Y-0010100D02*
X-0001650D01*
X0035600Y-0010050D02*
X-0001650D01*
X0035600Y-0008100D02*
X-0001650D01*
X0035650Y-0008050D02*
X-0001700D01*
X0035650Y-0020100D02*
Y-0008100D01*
X0035600Y-0020100D02*
Y-0008100D01*
X0024058Y-0020100D02*
Y-0010100D01*
X0018508Y-0020100D02*
Y-0010100D01*
X0010442Y-0018100D02*
Y-0010100D01*
X0002050Y-0018100D02*
Y-0010100D01*
X0002000Y-0018100D02*
Y-0010100D01*
X-0001700Y-0020100D02*
Y-0008100D01*
X-0001650Y-0020100D02*
Y-0008100D01*
X0034252Y-0006299D02*
X0040551D01*
X0041338Y-0005512D02*
Y0002362D01*
X0040551Y0003150D02*
X-0001181D01*
X-0001968Y0002362D02*
Y-0002362D01*
X-0001181Y-0003150D02*
X0032677D01*
X0033464Y-0003937D02*
Y-0005512D01*
X0003459Y0000250D02*
X0002959Y-0000250D01*
X0003459D02*
X0002959Y0000250D01*
X0002474Y0000000D02*
X0001974D01*
X0002224Y0000250D02*
Y-0000250D01*
X0032474Y0000250D02*
X0031974Y-0000250D01*
X0032474D02*
X0031974Y0000250D01*
X0033459Y0000000D02*
X0032959D01*
X0033209Y0000250D02*
Y-0000250D01*
X0035183Y0000250D02*
Y-0000250D01*
X0035683Y0000250D02*
X0035183D01*
X0035683Y-0000250D02*
Y0000250D01*
X0035183Y-0000250D02*
X0035683D01*
Y0000250D02*
X0035183Y-0000250D01*
X0035683D02*
X0035183Y0000250D01*
X-0000250D02*
Y-0000250D01*
X0000250Y0000250D02*
X-0000250D01*
X0000250Y-0000250D02*
Y0000250D01*
X-0000250Y-0000250D02*
X0000250D01*
Y0000250D02*
X-0000250Y-0000250D01*
X0000250D02*
X-0000250Y0000250D01*
X0017466Y-0001718D02*
Y-0002218D01*
X0017966Y-0001718D02*
X0017466D01*
X0017966Y-0002218D02*
Y-0001718D01*
X0017466Y-0002218D02*
X0017966D01*
Y-0001718D02*
X0017466Y-0002218D01*
X0017966D02*
X0017466Y-0001718D01*
Y0002218D02*
Y0001718D01*
X0017966Y0002218D02*
X0017466D01*
X0017966Y0001718D02*
Y0002218D01*
X0017466Y0001718D02*
X0017966D01*
Y0002218D02*
X0017466Y0001718D01*
X0017966D02*
X0017466Y0002218D01*
G01X0040551Y-0006299D02*
G03X0041338Y-0005512I0000000J0000787D01*
Y0002362D02*
G03X0040551Y0003149I0000787J0000000D01*
G01X-0001181Y0003150D02*
G03X-0001969Y0002362I0000000J0000788D01*
G01X-0001968Y-0002362D02*
G03X-0001181Y-0003149I0000787J0000000D01*
G01X0033464Y-0003937D02*
G03X0032677Y-0003150I0000787J0000000D01*
G01X0033464Y-0005512D02*
G03X0034252Y-0006300I0000788J0000000D01*
M02*
