*
G04 Mass Parameters ***
*
G04 Image ***
*
%IND:\UTENTI\00.CAD\00.PROGETTI\METALTRONICA\23-319-0 (FOTOCOPPIE LAME LATERALI)\23-319-0.TOP*%
%ICAS*%
%MOIN*%
%IPPOS*%
%ASAXBY*%
G74*%FSLAN2X34Y34*%
*
G04 Aperture Definitions ***
*
%ADD10C,0.0866*%
%ADD11C,0.0394*%
%ADD12R,0.0315X0.0590*%
%ADD13R,0.0236X0.0590*%
%ADD14C,0.0551*%
%ADD15C,0.0276*%
%ADD16C,0.0150*%
%ADD17C,0.0276*%
%ADD18C,0.0080*%
%ADD19C,0.0060*%
*
G04 Plot Data ***
*
G54D16*
G01X0036950Y-0005200D02*
Y-0005251D01*
X0037750Y-0005250D02*
X0037749Y-0005251D01*
X0037737D01*
X0037772D02*
X0037737D01*
X0037736Y-0005250D01*
X0037050D01*
X0037049Y-0005251D01*
X0036950D01*
X0037737D02*
X0037736Y-0005250D01*
X0037400D01*
Y-0004850D01*
X0036556Y-0004149D02*
X0036350D01*
Y-0004150D01*
X0036200D01*
X0036600Y-0005100D02*
X0036288D01*
X0036150Y-0005238D01*
X0036163Y-0005251D01*
X0037344Y-0004149D02*
Y-0004206D01*
X0036850Y-0004700D01*
X0035500D01*
G54D18*
G01X0037737Y-0005251D02*
X0037753Y-0005267D01*
X0037756D01*
X0037772Y-0005251D01*
G54D19*
G01X0000843Y-0002883D02*
X0000890D01*
Y-0002817D01*
X0000843D01*
Y-0002883D01*
X0000653Y-0002817D02*
X0000630Y-0002883D01*
X0000490D01*
X0000467Y-0002817D01*
Y-0002550D01*
X0000490Y-0002483D01*
X0000630D01*
X0000653Y-0002550D01*
X0000277Y-0002883D02*
X0000323D01*
Y-0002817D01*
X0000277D01*
Y-0002883D01*
X0000087D02*
X-0000077D01*
Y-0002483D01*
G54D10*
X0035433Y0000000D03*
X0000000D03*
X0017716Y-0001968D03*
Y0001968D03*
G54D11*
X0003209Y0000000D03*
X0032224D03*
X-0001000Y-0002500D03*
X0034000Y-0005500D03*
X0040500Y0002500D03*
G54D12*
X0038328Y-0004149D03*
X0035572D03*
Y-0005251D03*
X0038328D03*
G54D13*
X0037344Y-0004149D03*
X0036556D03*
X0036163Y-0005251D03*
X0036950D03*
X0037737D03*
G54D14*
X0002224Y0000000D03*
X0033209D03*
G54D15*
X0035500Y-0004700D03*
G54D17*
X0037400Y-0004850D03*
X0036200Y-0004150D03*
X0036600Y-0005100D03*
M02*
