*
G04 Mass Parameters ***
*
G04 Image ***
*
%IND:\UTENTI\00.LAVORI IN CORSO\METALTRONICA\23-319-0\23-319-0.BOT*%
%ICAS*%
%MOIN*%
%IPPOS*%
%ASAXBY*%
G74*%FSLAN2X34Y34*%
*
G04 Aperture Definitions ***
*
%ADD10C,0.0866*%
%ADD11C,0.0394*%
%ADD12R,0.0315X0.0590*%
%ADD13R,0.0236X0.0590*%
%ADD14C,0.0551*%
%ADD15C,0.0080*%
%ADD16C,0.0150*%
%ADD17C,0.0276*%
%ADD18C,0.0060*%
%ADD19R,0.0380X0.0320*%
%ADD20R,0.0354X0.0709*%
%ADD21R,0.0680X0.1580*%
%ADD22R,0.0680X0.0550*%
%ADD23R,0.0275X0.0126*%
%ADD24R,0.0500X0.0400*%
%ADD25C,0.0500*%
%ADD26C,0.0120*%
*
G04 Plot Data ***
*
G54D15*
G01X0037000Y-0002530D02*
X0036720Y-0002250D01*
X0035800D01*
X0035520Y-0001970D01*
X0035500D01*
X0005500Y0001780D02*
Y0002100D01*
X0005800Y0002400D01*
X0006550D01*
X0006950Y0002000D01*
X0008400D01*
X0039750Y-0000650D02*
X0039550D01*
X0039200Y-0002250D02*
X0038050D01*
X0037770Y-0002530D01*
X0037750D01*
X0003209Y0001201D02*
X0003258Y0001250D01*
X0005470D01*
X0005500Y0001220D01*
X0036250Y-0001970D02*
X0036220D01*
X0035850Y-0001600D01*
X0035150D01*
X0034854Y-0001896D01*
Y-0001994D01*
G54D16*
G01X0004750Y0002530D02*
X0004726Y0002506D01*
X0003104D01*
X0004750Y0002530D02*
X0004780D01*
X0005050Y0002800D01*
X0006750D01*
X0007150Y0002400D01*
X0007200D01*
X0034146Y-0002506D02*
Y-0002946D01*
X0036200Y-0005000D01*
X0036900D01*
X0037300Y-0005400D01*
X0038350D01*
X0038950Y-0004800D01*
Y-0003000D01*
X0040650Y-0001300D01*
Y0001700D01*
X0039650Y0002700D01*
X0031800D01*
X0029850Y0000750D01*
X0010100D01*
X0008570Y0002280D01*
X0008000D01*
X0005500Y0001220D02*
X0006070D01*
X0006300Y0001450D01*
Y0002000D01*
X0001500Y0001970D02*
Y0001950D01*
X0001700Y0001750D01*
X0002450D01*
X0002999Y0001201D01*
X0003209D01*
Y0001059D01*
X0002750Y0000600D01*
Y-0000600D01*
X0003209Y-0001059D01*
Y-0001201D01*
X0033500Y-0002530D02*
Y-0002500D01*
X0033600D01*
X0033850Y-0002250D01*
X0034854D01*
X0032224Y-0001201D02*
X0032225Y-0001200D01*
X0032700D01*
Y-0002050D01*
X0033180Y-0002530D01*
X0033500D01*
X0037000D02*
Y-0003750D01*
X0036600Y-0004150D01*
X0008000Y0001720D02*
X0009620Y0000100D01*
X0029950D01*
X0031950Y0002100D01*
X0032700D01*
X0032850Y0001950D01*
Y0000350D01*
X0032700Y0000200D01*
Y-0001201D01*
X0032224D01*
X0008400Y0002000D02*
X0010000Y0000400D01*
X0029900D01*
X0031900Y0002400D01*
X0039450D01*
X0040250Y0001600D01*
Y-0000150D01*
X0039750Y-0000650D01*
X0000000Y0002530D02*
Y0002700D01*
X0000200Y0002900D01*
X0002450D01*
X0002750Y0002600D01*
Y0002348D01*
X0003104Y0001994D01*
X0037750Y-0002530D02*
Y-0004450D01*
X0038000Y-0004700D01*
X0034000Y0000970D02*
X0034070D01*
X0034400Y0001300D01*
X0036400D01*
X0036950Y0000750D01*
Y0000250D01*
X0039550Y-0000650D02*
Y-0001900D01*
X0039200Y-0002250D01*
X0037000Y-0001970D02*
X0036970D01*
X0036350Y-0001350D01*
X0034800D01*
X0034156Y-0001994D01*
X0034146D01*
X0003104Y0001994D02*
X0004726D01*
X0004750Y0001970D01*
X0005500Y0001780D02*
X0005200D01*
X0005010Y0001970D01*
X0004750D01*
X0034854Y-0002250D02*
X0035100D01*
X0035380Y-0001970D01*
X0035500D01*
X0001500Y0002530D02*
X0002371D01*
X0002396Y0002506D01*
X0035500Y-0002530D02*
Y-0003900D01*
X0036350Y-0004750D01*
X0037100D01*
X0037500Y-0005150D01*
X0038200D01*
X0038500Y-0004850D01*
Y-0002530D01*
X0002224Y0001201D02*
X0001299D01*
X0000750Y0001750D01*
Y0001970D01*
X0033209Y-0001201D02*
X0033258Y-0001250D01*
Y-0000900D01*
X0036750D01*
X0037750Y-0001900D01*
Y-0001970D01*
Y-0002530D02*
X0037680D01*
X0037120Y-0001970D01*
X0037000D01*
X0000750Y0001970D02*
X0000000D01*
X0004000Y0001530D02*
X0003780Y0001750D01*
X0002900D01*
X0002656Y0001994D01*
X0002396D01*
X0034854Y-0002506D02*
X0035476D01*
X0035500Y-0002530D01*
X0039550Y0001150D02*
X0039300D01*
X0038450Y0002000D01*
X0034000D01*
Y0001530D01*
X0038500Y-0001970D02*
X0037750D01*
X0002224Y-0001201D02*
Y-0001374D01*
X0002600Y-0001750D01*
X0003646D01*
X0004902Y-0000500D01*
X0030150D01*
X0031851Y0001201D01*
X0032224D01*
X0036250Y-0002530D02*
Y-0004250D01*
X0036500Y-0004500D01*
X0037350D01*
X0001500Y0002530D02*
X0000750D01*
X0004000Y0000970D02*
X0004030D01*
X0005200Y-0000200D01*
X0030050D01*
X0032000Y0001750D01*
X0032500D01*
X0032600Y0001650D01*
Y0000600D01*
X0032450Y0000450D01*
X0032050D01*
X0031800Y0000200D01*
Y-0001750D01*
X0033050Y-0003000D01*
X0033750D01*
X0036000Y-0005250D01*
X0033209Y0001201D02*
Y0001709D01*
X0033500Y0002000D01*
X0034000D01*
Y0001530D01*
X0033500Y-0001970D02*
X0034121D01*
X0034146Y-0001994D01*
G54D18*
G01X0022432Y0002244D02*
X0022510Y0002322D01*
X0022549Y0002400D01*
Y0002555D01*
X0022510Y0002633D01*
X0022432Y0002711D01*
X0022354D01*
X0022277Y0002633D01*
X0022238Y0002555D01*
Y0002400D01*
X0022277Y0002322D01*
X0022354Y0002244D01*
X0022432D01*
X0022708Y0002478D02*
X0023019D01*
X0023217D02*
X0023450D01*
X0023489Y0002555D01*
Y0002633D01*
X0023450Y0002711D01*
X0023217D01*
X0023178Y0002633D01*
Y0002555D01*
X0023333Y0002244D01*
X0023648D02*
X0023803D01*
X0023726D02*
Y0002711D01*
X0023803Y0002633D01*
X0024351Y0002322D02*
X0024273Y0002244D01*
X0024118D01*
X0024040Y0002322D01*
Y0002400D01*
X0024196Y0002555D01*
X0024040Y0002711D01*
X0024351D01*
X0024510Y0002478D02*
X0024821D01*
X0025291Y0002322D02*
X0025213Y0002244D01*
X0025058D01*
X0024980Y0002322D01*
Y0002400D01*
X0025136Y0002555D01*
X0024980Y0002711D01*
X0025291D01*
X0025450Y0002244D02*
X0025761D01*
X0025450Y0002555D01*
Y0002633D01*
X0025489Y0002711D01*
X0025722D01*
X0025761Y0002633D01*
X0001357Y-0002883D02*
X0001310D01*
Y-0002817D01*
X0001357D01*
Y-0002883D01*
X0001547Y-0002550D02*
X0001570Y-0002483D01*
X0001710D01*
X0001733Y-0002550D01*
Y-0002617D01*
X0001710Y-0002683D01*
X0001570D01*
X0001547Y-0002750D01*
Y-0002817D01*
X0001570Y-0002883D01*
X0001710D01*
X0001733Y-0002817D01*
X0001923Y-0002883D02*
X0001877D01*
Y-0002817D01*
X0001923D01*
Y-0002883D01*
X0002113D02*
X0002277D01*
Y-0002483D01*
G54D25*
G01X0039550Y0000250D02*
X0036950D01*
G54D26*
G01X0007200Y0002400D02*
X0007320Y0002280D01*
X0008000D01*
Y0001720D02*
X0007320D01*
X0007200Y0001600D01*
X0006900D01*
X0006500Y0002000D01*
X0006300D01*
X0001500Y0001970D02*
X0001520D01*
X0001800Y0002250D01*
X0002396D01*
G54D10*
X0035433Y0000000D03*
X0000000D03*
X0017716Y-0001968D03*
Y0001968D03*
G54D11*
X0003209Y0000000D03*
X0032224D03*
X0030000Y0002500D03*
X0040500Y-0005500D03*
X-0001000Y0002500D03*
G54D14*
X0002224Y0000000D03*
X0033209D03*
G54D17*
X0036600Y-0004150D03*
X0038000Y-0004700D03*
X0037350Y-0004500D03*
X0036000Y-0005250D03*
G54D19*
X0004000Y0000970D03*
Y0001530D03*
X0036250Y-0002530D03*
Y-0001970D03*
X0004750Y0001970D03*
Y0002530D03*
X0000750D03*
Y0001970D03*
X0000000D03*
Y0002530D03*
X0038500Y-0002530D03*
Y-0001970D03*
X0034000Y0000970D03*
Y0001530D03*
X0037750Y-0001970D03*
Y-0002530D03*
X0008000Y0001720D03*
Y0002280D03*
X0001500Y0001970D03*
Y0002530D03*
X0005500Y0001220D03*
Y0001780D03*
X0037000Y-0002530D03*
Y-0001970D03*
X0035500D03*
Y-0002530D03*
X0033500D03*
Y-0001970D03*
G54D20*
X0003209Y0001201D03*
Y-0001201D03*
X0002224D03*
Y0001201D03*
X0032224Y-0001201D03*
Y0001201D03*
X0033209D03*
Y-0001201D03*
G54D21*
X0036950Y0000250D03*
G54D22*
X0039550Y0001150D03*
Y0000250D03*
Y-0000650D03*
G54D23*
X0002396Y0001994D03*
Y0002250D03*
Y0002506D03*
X0003104D03*
Y0001994D03*
X0034854Y-0001994D03*
Y-0002250D03*
Y-0002506D03*
X0034146D03*
Y-0001994D03*
G54D24*
X0006300Y0002000D03*
X0007200Y0002400D03*
Y0001600D03*
M02*
