*
G04 Mass Parameters ***
*
G04 Image ***
*
%IND:\UTENTI\00.CAD\00.PROGETTI\METALTRONICA\23-319-0 (FOTOCOPPIE LAME LATERALI)\23-319-0.SSB*%
%ICAS*%
%MOIN*%
%IPPOS*%
%ASAXBY*%
G74*%FSLAN2X34Y34*%
*
G04 Aperture Definitions ***
*
%ADD10C,0.0866*%
%ADD11C,0.0394*%
%ADD12R,0.0315X0.0590*%
%ADD13R,0.0236X0.0590*%
%ADD14C,0.0551*%
%ADD15C,0.0276*%
%ADD16C,0.0150*%
%ADD17C,0.0276*%
%ADD18C,0.0080*%
%ADD19C,0.0060*%
%ADD20R,0.0380X0.0320*%
%ADD21R,0.0354X0.0709*%
%ADD22R,0.0570X0.0590*%
%ADD23R,0.0500X0.0270*%
%ADD24R,0.0500X0.0400*%
%ADD25C,0.0120*%
%ADD26C,0.0590*%
%ADD27C,0.0010*%
%ADD28C,0.0100*%
*
G04 Plot Data ***
*
G54D19*
G01X0022432Y0002244D02*
X0022510Y0002322D01*
X0022549Y0002400D01*
Y0002555D01*
X0022510Y0002633D01*
X0022432Y0002711D01*
X0022354D01*
X0022277Y0002633D01*
X0022238Y0002555D01*
Y0002400D01*
X0022277Y0002322D01*
X0022354Y0002244D01*
X0022432D01*
X0022708Y0002478D02*
X0023019D01*
X0023217D02*
X0023450D01*
X0023489Y0002555D01*
Y0002633D01*
X0023450Y0002711D01*
X0023217D01*
X0023178Y0002633D01*
Y0002555D01*
X0023333Y0002244D01*
X0023648D02*
X0023803D01*
X0023726D02*
Y0002711D01*
X0023803Y0002633D01*
X0024351Y0002322D02*
X0024273Y0002244D01*
X0024118D01*
X0024040Y0002322D01*
Y0002400D01*
X0024196Y0002555D01*
X0024040Y0002711D01*
X0024351D01*
X0024510Y0002478D02*
X0024821D01*
X0025291Y0002322D02*
X0025213Y0002244D01*
X0025058D01*
X0024980Y0002322D01*
Y0002400D01*
X0025136Y0002555D01*
X0024980Y0002711D01*
X0025291D01*
X0025450Y0002244D02*
X0025761D01*
X0025450Y0002555D01*
Y0002633D01*
X0025489Y0002711D01*
X0025722D01*
X0025761Y0002633D01*
X0003040Y0001800D02*
X0003227D01*
X0003133Y0002067D01*
X0003087D01*
Y0001667D01*
X0002327Y0001733D02*
X0002280Y0001667D01*
X0002187D01*
X0002140Y0001733D01*
Y0001800D01*
X0002233Y0001933D01*
X0002140Y0002067D01*
X0002327D01*
X0002140Y-0002083D02*
X0002327D01*
X0002140Y-0001817D01*
Y-0001750D01*
X0002163Y-0001683D01*
X0002303D01*
X0002327Y-0001750D01*
X0003087Y-0002083D02*
X0003180D01*
X0003133D02*
Y-0001683D01*
X0003180Y-0001750D01*
X0033877Y-0001367D02*
X0033830Y-0001433D01*
X0033737D01*
X0033690Y-0001367D01*
Y-0001300D01*
X0033783Y-0001167D01*
X0033690Y-0001033D01*
X0033877D01*
X0031490Y-0001400D02*
X0031677D01*
X0031583Y-0001133D01*
X0031537D01*
Y-0001533D01*
X0033140Y0001667D02*
X0033327D01*
X0033140Y0001933D01*
Y0002000D01*
X0033163Y0002067D01*
X0033303D01*
X0033327Y0002000D01*
X0032187Y0001667D02*
X0032280D01*
X0032233D02*
Y0002067D01*
X0032280Y0002000D01*
X0026310Y-0002522D02*
X0026621D01*
X0026310Y-0002756D02*
Y-0002289D01*
X0026621Y-0002756D02*
Y-0002289D01*
X0026780Y-0002678D02*
X0026819Y-0002756D01*
X0027052D01*
X0027091Y-0002678D01*
Y-0002367D01*
X0027052Y-0002289D01*
X0026819D01*
X0026780Y-0002367D01*
X0027250D02*
X0027289Y-0002289D01*
X0027522D01*
X0027561Y-0002367D01*
Y-0002444D01*
X0027522Y-0002522D01*
X0027289D01*
X0027250Y-0002600D01*
Y-0002678D01*
X0027289Y-0002756D01*
X0027522D01*
X0027561Y-0002678D01*
X0026446Y-0001956D02*
Y-0001722D01*
X0026290Y-0001489D02*
X0026407Y-0001722D01*
X0026484D01*
X0026601Y-0001489D01*
X0026760Y-0001567D02*
X0026799Y-0001489D01*
X0027032D01*
X0027071Y-0001567D01*
Y-0001644D01*
X0027032Y-0001722D01*
X0026799D01*
X0026760Y-0001800D01*
Y-0001878D01*
X0026799Y-0001956D01*
X0027032D01*
X0027071Y-0001878D01*
X0027230Y-0001567D02*
X0027269Y-0001489D01*
X0027502D01*
X0027541Y-0001567D01*
Y-0001644D01*
X0027502Y-0001722D01*
X0027269D01*
X0027230Y-0001800D01*
Y-0001878D01*
X0027269Y-0001956D01*
X0027502D01*
X0027541Y-0001878D01*
X0027700Y-0001800D02*
X0028011D01*
X0027700Y-0001956D02*
Y-0001722D01*
X0027817Y-0001489D01*
X0027894D01*
X0028011Y-0001722D01*
Y-0001956D01*
X0038610Y-0003348D02*
X0038677Y-0003394D01*
Y-0003488D01*
X0038610Y-0003534D01*
X0038544D01*
X0038410Y-0003441D01*
X0038277Y-0003534D01*
Y-0003348D01*
X0038477Y-0003134D02*
X0038677Y-0003204D01*
X0038477Y-0003018D02*
Y-0003158D01*
X0038410Y-0003204D01*
X0038344D01*
X0038277Y-0003158D01*
Y-0003018D01*
X0038677D01*
X0037939Y-0003499D02*
Y-0003405D01*
Y-0003452D02*
X0037539D01*
X0037606Y-0003405D01*
X0037739Y-0003145D02*
X0037939Y-0003215D01*
X0037739Y-0003029D02*
Y-0003169D01*
X0037673Y-0003215D01*
X0037606D01*
X0037539Y-0003169D01*
Y-0003029D01*
X0037939D01*
X0003129Y0002543D02*
X0003196Y0002497D01*
Y0002403D01*
X0003129Y0002357D01*
X0003062D01*
X0002929Y0002450D01*
X0002796Y0002357D01*
Y0002543D01*
Y0002687D02*
X0003129D01*
X0003196Y0002710D01*
Y0002850D01*
X0003129Y0002873D01*
X0002796D01*
X0036477Y-0003394D02*
X0036077Y-0003534D01*
Y-0003348D01*
X0036277Y-0003134D02*
X0036477Y-0003204D01*
X0036277Y-0003018D02*
Y-0003158D01*
X0036210Y-0003204D01*
X0036144D01*
X0036077Y-0003158D01*
Y-0003018D01*
X0036477D01*
X0037110Y-0003348D02*
X0037177Y-0003394D01*
Y-0003488D01*
X0037110Y-0003534D01*
X0037044D01*
X0036910Y-0003441D01*
X0036777Y-0003534D01*
Y-0003348D01*
X0037110Y-0003204D02*
X0037177Y-0003181D01*
Y-0003041D01*
X0037110Y-0003018D01*
X0036844D01*
X0036777Y-0003041D01*
Y-0003181D01*
X0036844Y-0003204D01*
X0000873Y0001241D02*
X0000939Y0001218D01*
Y0001078D01*
X0000873Y0001054D01*
X0000739D01*
X0000673Y0001101D01*
Y0001241D01*
X0000539D01*
Y0001054D01*
X0000739Y0001454D02*
X0000939Y0001384D01*
X0000739Y0001571D02*
Y0001431D01*
X0000673Y0001384D01*
X0000606D01*
X0000539Y0001431D01*
Y0001571D01*
X0000939D01*
X0038501Y-0000914D02*
Y-0000774D01*
X0038435Y-0000751D01*
X0038368D01*
X0038301Y-0000774D01*
Y-0000914D01*
X0038368Y-0000937D01*
X0038435D01*
X0038701Y-0000844D01*
X0038501Y-0000537D02*
X0038701Y-0000607D01*
X0038501Y-0000421D02*
Y-0000561D01*
X0038435Y-0000607D01*
X0038368D01*
X0038301Y-0000561D01*
Y-0000421D01*
X0038701D01*
X0034471Y-0003637D02*
Y-0003450D01*
X0034204Y-0003637D01*
X0034137D01*
X0034071Y-0003613D01*
Y-0003473D01*
X0034137Y-0003450D01*
X0034071Y-0003307D02*
X0034404D01*
X0034471Y-0003283D01*
Y-0003143D01*
X0034404Y-0003120D01*
X0034071D01*
X0000094Y0000965D02*
Y0001152D01*
X-0000173Y0001059D01*
Y0001012D01*
X0000227D01*
X0000027Y0001365D02*
X0000227Y0001295D01*
X0000027Y0001482D02*
Y0001342D01*
X-0000039Y0001295D01*
X-0000106D01*
X-0000173Y0001342D01*
Y0001482D01*
X0000227D01*
X0037715Y-0001059D02*
X0037648Y-0001013D01*
X0037582Y-0000989D01*
X0037448D01*
X0037382Y-0001013D01*
X0037315Y-0001059D01*
Y-0001106D01*
X0037382Y-0001153D01*
X0037448Y-0001176D01*
X0037582D01*
X0037648Y-0001153D01*
X0037715Y-0001106D01*
Y-0001059D01*
Y-0000846D02*
Y-0000753D01*
Y-0000799D02*
X0037315D01*
X0037382Y-0000753D01*
X0037515Y-0000493D02*
X0037715Y-0000563D01*
X0037515Y-0000376D02*
Y-0000516D01*
X0037448Y-0000563D01*
X0037382D01*
X0037315Y-0000516D01*
Y-0000376D01*
X0037715D01*
X0006244Y0000515D02*
Y0000702D01*
X0005977Y0000609D01*
Y0000562D01*
X0006377D01*
X0006310Y0000845D02*
X0006377Y0000869D01*
Y0001009D01*
X0006310Y0001032D01*
X0006044D01*
X0005977Y0001009D01*
Y0000869D01*
X0006044Y0000845D01*
X0032527Y-0002438D02*
Y-0002344D01*
Y-0002391D02*
X0032127D01*
X0032194Y-0002344D01*
X0032460Y-0002154D02*
X0032527Y-0002131D01*
Y-0001991D01*
X0032460Y-0001968D01*
X0032194D01*
X0032127Y-0001991D01*
Y-0002131D01*
X0032194Y-0002154D01*
X0008977Y0000929D02*
Y0000789D01*
X0009044Y0000765D01*
X0009110D01*
X0009177Y0000789D01*
Y0000929D01*
X0009110Y0000952D01*
X0009044D01*
X0008777Y0000859D01*
X0009110Y0001095D02*
X0009177Y0001119D01*
Y0001259D01*
X0009110Y0001282D01*
X0008844D01*
X0008777Y0001259D01*
Y0001119D01*
X0008844Y0001095D01*
X0007507Y0000523D02*
Y0000710D01*
X0007241Y0000616D01*
Y0000570D01*
X0007641D01*
X0007241Y0000853D02*
X0007574D01*
X0007641Y0000876D01*
Y0001016D01*
X0007574Y0001040D01*
X0007241D01*
X0001650Y-0000470D02*
Y-0000283D01*
X0001383Y-0000470D01*
X0001316D01*
X0001250Y-0000447D01*
Y-0000307D01*
X0001316Y-0000283D01*
X0001583Y-0000140D02*
X0001650Y-0000117D01*
Y0000023D01*
X0001583Y0000047D01*
X0001316D01*
X0001250Y0000023D01*
Y-0000117D01*
X0001316Y-0000140D01*
X0001650Y0000353D02*
X0001583Y0000377D01*
X0001316D01*
X0001250Y0000353D01*
Y0000213D01*
X0001316Y0000190D01*
X0001583D01*
X0001650Y0000213D01*
Y0000353D01*
X0005477Y-0000261D02*
X0005410Y-0000284D01*
X0005344D01*
X0005277Y-0000261D01*
Y-0000121D01*
X0005344Y-0000098D01*
X0005410D01*
X0005477Y-0000121D01*
Y-0000261D01*
X0005544Y-0000284D01*
X0005610D01*
X0005677Y-0000261D01*
Y-0000121D01*
X0005610Y-0000098D01*
X0005544D01*
X0005477Y-0000121D01*
Y0000115D02*
X0005677Y0000045D01*
X0005477Y0000232D02*
Y0000092D01*
X0005410Y0000045D01*
X0005344D01*
X0005277Y0000092D01*
Y0000232D01*
X0005677D01*
X0004777Y0001129D02*
Y0000989D01*
X0004844Y0000965D01*
X0004910D01*
X0004977Y0000989D01*
Y0001129D01*
X0004910Y0001152D01*
X0004844D01*
X0004577Y0001059D01*
X0004777Y0001365D02*
X0004977Y0001295D01*
X0004777Y0001482D02*
Y0001342D01*
X0004710Y0001295D01*
X0004644D01*
X0004577Y0001342D01*
Y0001482D01*
X0004977D01*
X0035689Y-0003545D02*
Y-0003359D01*
X0035423Y-0003545D01*
X0035356D01*
X0035289Y-0003522D01*
Y-0003382D01*
X0035356Y-0003359D01*
X0035623Y-0003215D02*
X0035689Y-0003192D01*
Y-0003052D01*
X0035623Y-0003029D01*
X0035356D01*
X0035289Y-0003052D01*
Y-0003192D01*
X0035356Y-0003215D01*
X0031283Y0000373D02*
Y0000280D01*
Y0000327D02*
X0031683D01*
X0031616Y0000280D01*
X0031350Y0000090D02*
X0031283Y0000067D01*
Y-0000073D01*
X0031350Y-0000097D01*
X0031616D01*
X0031683Y-0000073D01*
Y0000067D01*
X0031616Y0000090D01*
X0031283Y-0000403D02*
X0031350Y-0000427D01*
X0031616D01*
X0031683Y-0000403D01*
Y-0000263D01*
X0031616Y-0000240D01*
X0031350D01*
X0031283Y-0000263D01*
Y-0000403D01*
X0001610Y0001202D02*
X0001677Y0001179D01*
Y0001039D01*
X0001610Y0001015D01*
X0001477D01*
X0001410Y0001062D01*
Y0001202D01*
X0001277D01*
Y0001015D01*
X0001610Y0001345D02*
X0001677Y0001369D01*
Y0001509D01*
X0001610Y0001532D01*
X0001344D01*
X0001277Y0001509D01*
Y0001369D01*
X0001344Y0001345D01*
X0001175Y0001675D02*
Y0002825D01*
X0001820D01*
Y0001675D01*
X0001175D01*
X0038175Y-0002825D02*
Y-0001675D01*
X0038820D01*
Y-0002825D01*
X0038175D01*
X0038075Y-0001675D02*
Y-0002825D01*
X0037430D01*
Y-0001675D01*
X0038075D01*
X0005070Y0001600D02*
X0005160D01*
Y0002850D01*
X0003370D01*
Y0001600D01*
X0005070D01*
X0035925Y-0002825D02*
Y-0001675D01*
X0036570D01*
Y-0002825D01*
X0035925D01*
X0036675D02*
Y-0001675D01*
X0037320D01*
Y-0002825D01*
X0036675D01*
X0001075Y0002825D02*
Y0001675D01*
X0000430D01*
Y0002825D01*
X0001075D01*
X0039000Y0001750D02*
X0038000D01*
Y-0000250D01*
X0039000D01*
Y0001750D01*
X-0000325Y0001675D02*
Y0002825D01*
X0000320D01*
Y0001675D01*
X-0000325D01*
X0037000Y-0000250D02*
X0038000D01*
Y0001750D01*
X0037000D01*
Y-0000250D01*
X0005925Y0001175D02*
Y0002325D01*
X0006570D01*
Y0001175D01*
X0005925D01*
X0032675Y-0002825D02*
Y-0001675D01*
X0033320D01*
Y-0002825D01*
X0032675D01*
X0033430Y-0001750D02*
X0033340D01*
Y-0003000D01*
X0035130D01*
Y-0001750D01*
X0033430D01*
X0008625Y0001425D02*
Y0002575D01*
X0009270D01*
Y0001425D01*
X0008625D01*
X0008400Y0002800D02*
Y0001200D01*
X0006600D01*
Y0001900D01*
X0006700Y0002000D01*
X0006600Y0002100D01*
Y0002800D01*
X0008400D01*
X0003543Y-0000590D02*
Y-0000197D01*
Y0000197D01*
Y0000590D01*
Y0001260D01*
X0003268D01*
X0003307D02*
Y0001457D01*
X0003110D01*
Y0001260D01*
Y-0001260D02*
Y-0001457D01*
X0003307D01*
Y-0001260D01*
X0002126Y0001260D02*
Y0001457D01*
X0002323D01*
Y0001260D01*
X0002126Y-0001260D02*
Y-0001457D01*
X0002323D01*
Y-0001260D01*
X0003543Y0000590D02*
X0003268D01*
X0001890D02*
X0003268D01*
Y0001260D01*
X0001890D01*
Y0000590D01*
Y0000197D01*
Y-0000197D01*
Y-0000590D01*
X0003268D01*
Y-0001260D01*
X0003543D01*
Y-0000590D01*
X0003268D01*
X0001890D02*
Y-0001260D01*
X0003268D01*
X0005175Y0000425D02*
Y0001575D01*
X0005820D01*
Y0000425D01*
X0005175D01*
Y0001675D02*
Y0002825D01*
X0005820D01*
Y0001675D01*
X0005175D01*
X0035825Y-0001675D02*
Y-0002825D01*
X0035180D01*
Y-0001675D01*
X0035825D01*
X0031890Y0000590D02*
Y0000197D01*
Y-0000197D01*
Y-0000590D01*
Y-0001260D01*
X0032165D01*
X0032126D02*
Y-0001457D01*
X0032323D01*
Y-0001260D01*
Y0001260D02*
Y0001457D01*
X0032126D01*
Y0001260D01*
X0033307Y-0001260D02*
Y-0001457D01*
X0033110D01*
Y-0001260D01*
X0033307Y0001260D02*
Y0001457D01*
X0033110D01*
Y0001260D01*
X0031890Y-0000590D02*
X0032165D01*
X0033543D02*
X0032165D01*
Y-0001260D01*
X0033543D01*
Y-0000590D01*
Y-0000197D01*
Y0000197D01*
Y0000590D01*
X0032165D01*
Y0001260D01*
X0031890D01*
Y0000590D01*
X0032165D01*
X0033543D02*
Y0001260D01*
X0032165D01*
G54D28*
G01X0022490Y-0002250D02*
Y-0002900D01*
X0022400Y-0002250D02*
Y-0002900D01*
X0022310Y-0002250D02*
Y-0002900D01*
X0022220Y-0002250D02*
Y-0002900D01*
X0022130Y-0002250D02*
Y-0002900D01*
X0022040Y-0002250D02*
Y-0002900D01*
X0021950Y-0002250D02*
Y-0002900D01*
X0021860Y-0002250D02*
Y-0002900D01*
X0021770Y-0002250D02*
Y-0002900D01*
X0021680Y-0002250D02*
Y-0002900D01*
X0021590Y-0002250D02*
Y-0002900D01*
X0026100Y-0002320D02*
X0021550D01*
X0026100Y-0002410D02*
X0021550D01*
X0026100Y-0002500D02*
X0021550D01*
X0026100Y-0002590D02*
X0021550D01*
X0026100Y-0002680D02*
X0021550D01*
X0026100Y-0002770D02*
X0021550D01*
X0024110Y-0002250D02*
Y-0002900D01*
X0024020Y-0002250D02*
Y-0002900D01*
X0023930Y-0002250D02*
Y-0002900D01*
X0023840Y-0002250D02*
Y-0002900D01*
X0023750Y-0002250D02*
Y-0002900D01*
X0023660Y-0002250D02*
Y-0002900D01*
X0023570Y-0002250D02*
Y-0002900D01*
X0023480Y-0002250D02*
Y-0002900D01*
X0023390Y-0002250D02*
Y-0002900D01*
X0023300Y-0002250D02*
Y-0002900D01*
X0023210Y-0002250D02*
Y-0002900D01*
X0023120Y-0002250D02*
Y-0002900D01*
X0023030Y-0002250D02*
Y-0002900D01*
X0022940Y-0002250D02*
Y-0002900D01*
X0022850Y-0002250D02*
Y-0002900D01*
X0022760Y-0002250D02*
Y-0002900D01*
X0022670Y-0002250D02*
Y-0002900D01*
X0022580Y-0002250D02*
Y-0002900D01*
X0025730Y-0002250D02*
Y-0002900D01*
X0025640Y-0002250D02*
Y-0002900D01*
X0025550Y-0002250D02*
Y-0002900D01*
X0025460Y-0002250D02*
Y-0002900D01*
X0025370Y-0002250D02*
Y-0002900D01*
X0025280Y-0002250D02*
Y-0002900D01*
X0025190Y-0002250D02*
Y-0002900D01*
X0025100Y-0002250D02*
Y-0002900D01*
X0025010Y-0002250D02*
Y-0002900D01*
X0024920Y-0002250D02*
Y-0002900D01*
X0024830Y-0002250D02*
Y-0002900D01*
X0024740Y-0002250D02*
Y-0002900D01*
X0024650Y-0002250D02*
Y-0002900D01*
X0024560Y-0002250D02*
Y-0002900D01*
X0024470Y-0002250D02*
Y-0002900D01*
X0024380Y-0002250D02*
Y-0002900D01*
X0024290Y-0002250D02*
Y-0002900D01*
X0024200Y-0002250D02*
Y-0002900D01*
X0026100Y-0002860D02*
X0021550D01*
X0026100Y-0002900D02*
X0021550D01*
X0026100Y-0002250D02*
Y-0002900D01*
Y-0002250D02*
X0021550D01*
Y-0002900D01*
X0026090Y-0002250D02*
Y-0002900D01*
X0026000Y-0002250D02*
Y-0002900D01*
X0025910Y-0002250D02*
Y-0002900D01*
X0025820Y-0002250D02*
Y-0002900D01*
X0022490Y-0001400D02*
Y-0002050D01*
X0022400Y-0001400D02*
Y-0002050D01*
X0022310Y-0001400D02*
Y-0002050D01*
X0022220Y-0001400D02*
Y-0002050D01*
X0022130Y-0001400D02*
Y-0002050D01*
X0022040Y-0001400D02*
Y-0002050D01*
X0021950Y-0001400D02*
Y-0002050D01*
X0021860Y-0001400D02*
Y-0002050D01*
X0021770Y-0001400D02*
Y-0002050D01*
X0021680Y-0001400D02*
Y-0002050D01*
X0021590Y-0001400D02*
Y-0002050D01*
X0026100Y-0001470D02*
X0021550D01*
X0026100Y-0001560D02*
X0021550D01*
X0026100Y-0001650D02*
X0021550D01*
X0026100Y-0001740D02*
X0021550D01*
X0026100Y-0001830D02*
X0021550D01*
X0026100Y-0001920D02*
X0021550D01*
X0024110Y-0001400D02*
Y-0002050D01*
X0024020Y-0001400D02*
Y-0002050D01*
X0023930Y-0001400D02*
Y-0002050D01*
X0023840Y-0001400D02*
Y-0002050D01*
X0023750Y-0001400D02*
Y-0002050D01*
X0023660Y-0001400D02*
Y-0002050D01*
X0023570Y-0001400D02*
Y-0002050D01*
X0023480Y-0001400D02*
Y-0002050D01*
X0023390Y-0001400D02*
Y-0002050D01*
X0023300Y-0001400D02*
Y-0002050D01*
X0023210Y-0001400D02*
Y-0002050D01*
X0023120Y-0001400D02*
Y-0002050D01*
X0023030Y-0001400D02*
Y-0002050D01*
X0022940Y-0001400D02*
Y-0002050D01*
X0022850Y-0001400D02*
Y-0002050D01*
X0022760Y-0001400D02*
Y-0002050D01*
X0022670Y-0001400D02*
Y-0002050D01*
X0022580Y-0001400D02*
Y-0002050D01*
X0025730Y-0001400D02*
Y-0002050D01*
X0025640Y-0001400D02*
Y-0002050D01*
X0025550Y-0001400D02*
Y-0002050D01*
X0025460Y-0001400D02*
Y-0002050D01*
X0025370Y-0001400D02*
Y-0002050D01*
X0025280Y-0001400D02*
Y-0002050D01*
X0025190Y-0001400D02*
Y-0002050D01*
X0025100Y-0001400D02*
Y-0002050D01*
X0025010Y-0001400D02*
Y-0002050D01*
X0024920Y-0001400D02*
Y-0002050D01*
X0024830Y-0001400D02*
Y-0002050D01*
X0024740Y-0001400D02*
Y-0002050D01*
X0024650Y-0001400D02*
Y-0002050D01*
X0024560Y-0001400D02*
Y-0002050D01*
X0024470Y-0001400D02*
Y-0002050D01*
X0024380Y-0001400D02*
Y-0002050D01*
X0024290Y-0001400D02*
Y-0002050D01*
X0024200Y-0001400D02*
Y-0002050D01*
X0026100Y-0002010D02*
X0021550D01*
X0026100Y-0002050D02*
X0021550D01*
X0026100Y-0001400D02*
Y-0002050D01*
Y-0001400D02*
X0021550D01*
Y-0002050D01*
X0026090Y-0001400D02*
Y-0002050D01*
X0026000Y-0001400D02*
Y-0002050D01*
X0025910Y-0001400D02*
Y-0002050D01*
X0025820Y-0001400D02*
Y-0002050D01*
M02*
